<svg xmlns="http://www.w3.org/2000/svg" version="1.1" xmlns:xlink="http://www.w3.org/1999/xlink" xmlns:svgjs="http://svgjs.com/svgjs" width="1920" height="1080" preserveAspectRatio="none" viewBox="0 0 1920 1080"><g mask="url(&quot;#SvgjsMask1266&quot;)" fill="none"><rect width="1920" height="1080" x="0" y="0" fill="#0e2a47"></rect><path d="M0,654.833C128.484,677.23,283.115,677.308,377.306,587.099C471.981,496.426,408.784,330.801,462.971,211.432C516.959,92.502,699.49,31.139,688.774,-99.031C678.227,-227.148,502.852,-265.7,415.899,-360.379C332.418,-451.277,303.58,-597.723,188.897,-643.323C72.921,-689.437,-55.945,-633.392,-174.779,-595.241C-290.995,-557.931,-408.306,-515.248,-490.656,-425.156C-574.169,-333.792,-617.744,-213.872,-635.368,-91.352C-652.992,31.173,-654.016,163.408,-590.61,269.722C-529.406,372.345,-401.376,403.547,-301.286,468.811C-200.374,534.611,-118.679,634.145,0,654.833" fill="#091b2e"></path><path d="M1920 1914.194C2078.7110000000002 1914.079 2245.13 1875.978 2363.857 1770.655 2476.844 1670.424 2483.178 1503.123 2540.7799999999997 1363.501 2595.775 1230.1970000000001 2707.643 1112.233 2694.746 968.608 2681.683 823.13 2574.7780000000002 705.5160000000001 2472.346 601.39 2374.693 502.12199999999996 2246.205 453.111 2123.28 387.69100000000003 1966.413 304.207 1826.581 136.106 1651.141 164.34900000000005 1477.132 192.36199999999997 1370.7930000000001 373.875 1278.0610000000001 523.757 1195.1480000000001 657.769 1144.404 812.344 1152.87 969.703 1160.529 1112.062 1269.399 1220.554 1322.662 1352.795 1379.304 1493.425 1365.255 1667.467 1475.731 1771.296 1591.43 1880.034 1761.223 1914.309 1920 1914.194" fill="#133960"></path></g><defs><mask id="SvgjsMask1266"><rect width="1920" height="1080" fill="#ffffff"></rect></mask></defs></svg>